<?xml version="1.0" encoding="utf-8"?>

<!DOCTYPE svg PUBLIC "-//W3C//DTD SVG 1.1//EN" "http://www.w3.org/Graphics/SVG/1.1/DTD/svg11.dtd">
 <svg version="1.1" id="Layer_1" xmlns="http://www.w3.org/2000/svg" xmlns:xlink="http://www.w3.org/1999/xlink"
        x="0px" y="0px" viewBox="0 0 1569.795 1694.367" enable-background="new 0 0 1569.795 1694.367"
        xml:space="preserve">
        <g>
            <path id="middle_box" fill="#2B022C" d="M752.075,59.131c12.01-10.124,28.839-14.273,44.153-10.667c18.263,3.968,33.66,18.731,38.337,36.835
		c1.645,5.854,1.939,11.972,1.818,18.022c-0.008,444.953,0,889.906-0.008,1334.858c-34.316,0.03-68.632,0.008-102.948,0.008
		c-0.023-439.665-0.008-879.337-0.015-1319.009c0.06-7.521-0.113-15.042,0.091-22.563C734.054,82.245,740.956,68.251,752.075,59.131
		z" />
            <path id="left_triangle_first" fill="#2B022C" d="M319.932,156.338c5.386,10.931,9.935,22.284,15.125,33.328c-5.092,3.568-11.338,5.069-17.486,5.198
		C234.923,380.225,152.29,565.594,69.687,750.979c-4.881-0.03-9.754,0.008-14.635-0.023
		c79.894-179.327,159.819-358.639,239.721-537.966C303.132,194.094,311.717,175.295,319.932,156.338z" />
            <path id="right_triangle_second" fill="#2B022C" d="M1234.739,189.704c5.16-11.059,9.724-22.42,15.132-33.35c36.179,81.682,72.721,163.221,109.02,244.851
		c51.961,116.579,103.913,233.166,155.859,349.752c-4.873,0.045-9.746-0.023-14.612,0.038
		c-82.648-185.369-165.258-370.769-247.906-556.138C1246.069,194.75,1239.861,193.204,1234.739,189.704z" />
            <path id="left_hand_tip" fill="#2B022C" d="M208.445,192.404c0.988-6.518,7.174-11.7,13.767-11.542c21.552,0,43.112,0.03,64.671-0.008
		c2.821,5.1,6.902,9.407,11.708,12.688c-2.286,5.009-4.375,10.116-6.797,15.065c-23.476-0.075-46.959,0.008-70.435-0.038
		C213.378,208.427,206.868,200.197,208.445,192.404z" />
            <path id="left_hand_holder" fill="#2B022C" d="M348.892,180.878c125.156-0.015,250.312,0,375.476-0.008c-0.008,9.226-0.023,18.459,0.008,27.685
		c-136.042,0.083-272.083-0.045-408.117,0.06c1.403-3.131,2.859-6.239,4.172-9.407C332.288,198.484,343.234,191.273,348.892,180.878
		z" />
            <path id="right_hand_holder" fill="#2B022C"
                d="M845.428,180.87c125.156,0,250.312,0,375.468,0c5.658,10.388,16.604,17.629,28.47,18.339
		c1.29,3.168,2.768,6.261,4.164,9.399c-136.019-0.045-272.03-0.053-408.049,0C845.375,199.367,845.473,190.118,845.428,180.87z" />

            <path id="right_hand_tip" fill="#2B022C" d="M1282.852,180.87c21.839,0.008,43.67-0.023,65.501,0.015c7.634,0.166,14.084,7.596,13.141,15.185
		c-0.588,6.593-6.405,12.349-13.088,12.5c-23.446,0.06-46.906-0.083-70.352,0.075c-2.505-4.911-4.496-10.056-6.857-15.034
		C1275.912,190.232,1280.114,186.037,1282.852,180.87z" />
            <path id="left_triangle_second" fill="#2B022C" d="M332.831,217.63c5.552,0.03,11.104-0.03,16.664,0.03c78.559,177.788,157.126,355.583,235.768,533.334
		c-5.567-0.06-11.134,0-16.702-0.03C490.018,573.168,411.383,395.418,332.831,217.63z" />

            <path id="right_triangle_first" fill="#2B022C" d="M1220.285,217.668c5.552-0.06,11.119-0.038,16.679-0.008c-78.559,177.765-157.186,355.508-235.715,533.288
		c-5.575,0.053-11.149-0.023-16.724,0.038c43.014-97.056,85.854-194.195,128.807-291.274
		C1148.96,379.018,1184.702,298.377,1220.285,217.668z" />
            <path id="left_box" fill="#2B022C" d="M43.715,760.024c182.774,0.023,365.549,0.008,548.331,0.008c-18.897,55.099-55.129,104.026-102.065,138.486
		c-26.81,19.81-57.09,34.904-89.037,44.417c-64.868,19.432-136.532,15.268-198.608-11.874
		c-53.183-22.978-99.055-62.386-129.939-111.389C60.605,800.963,50.911,780.927,43.715,760.024z" />
            <path id="right_box" fill="#2B022C" d="M977.758,760.031c182.774-0.008,365.549,0.015,548.323-0.008
		c-19.116,55.596-55.815,104.902-103.385,139.421c-23.114,16.898-48.785,30.273-75.836,39.649
		c-36.647,12.681-75.859,17.856-114.542,15.238c-37.575-2.474-74.659-12.356-108.432-29.02
		c-33.531-16.468-63.819-39.513-88.668-67.41C1009.894,829.47,990.107,796.06,977.758,760.031z" />
            <path fill="#2B022C" d="M658.851,1448.552c10.237-1.712,20.639-1.26,30.967-1.313c62.363,0,124.719,0,187.074,0
		c10.056,0.121,20.149-0.422,30.167,0.777c27.73,3.138,53.665,18.731,69.681,41.55c11.066,15.442,17.267,34.112,18.346,53.031
		c-123.368,0.166-246.737,0.03-370.105,0.076c-16.762-0.076-33.524,0.151-50.278-0.113c1.003-15.623,5.198-31.11,13.073-44.688
		C602.425,1471.832,629.295,1453.078,658.851,1448.552z" />
            <path fill="#2B022C" d="M475.519,1552.745c5.959-1.373,12.108-0.973,18.18-1.019c193.863,0,387.727,0,581.59,0
		c6.465,0.068,13.013-0.407,19.372,1.086c14.906,3.093,27.904,13.858,33.841,27.866c7.415,16.573,3.915,37.152-8.328,50.512
		c-8.924,10.123-22.299,15.97-35.764,15.97c-198.156,0.015-396.319-0.008-594.482,0.008c-5.243,0.076-10.546-0.091-15.661-1.328
		c-9.445-2.203-18.157-7.385-24.622-14.62c-10.818-11.859-14.929-29.367-10.395-44.779
		C443.888,1569.658,458.402,1556.087,475.519,1552.745z" />
        </g>
    </svg>